<svg xmlns="http://www.w3.org/2000/svg" width="24" height="24" viewBox="0 0 24 24"><defs><style>.a{fill:none;}.b{fill:#475266;}</style></defs><rect class="a" width="24" height="24"/><g transform="translate(4 4)"><path class="b" d="M340.735,228.634a1.732,1.732,0,0,1,.566-.567l9.843-6.2a1.752,1.752,0,0,1,2.443.567,1.781,1.781,0,0,1,.283.956v12.428a1.753,1.753,0,0,1-1.77,1.77,1.876,1.876,0,0,1-.956-.283l-9.843-6.2A1.851,1.851,0,0,1,340.735,228.634Z" transform="translate(-337.871 -221.592)"/><rect class="b" width="2" height="16" rx="1" transform="translate(0 0)"/></g></svg>