<svg xmlns="http://www.w3.org/2000/svg" width="24" height="24" viewBox="0 0 24 24"><defs><style>.a{fill:none;}.b{fill:#475266;}</style></defs><rect class="a" width="24" height="24"/><g transform="translate(-243 -435)"><path class="b" d="M345.956,224.528a.722.722,0,0,0-.236-.236l-4.1-2.583a.73.73,0,0,0-1.018.236.742.742,0,0,0-.118.4v5.181a.731.731,0,0,0,.738.738.782.782,0,0,0,.4-.118l4.1-2.583A.772.772,0,0,0,345.956,224.528Z" transform="translate(-93.48 226.738)"/><g transform="translate(-1234.76 -163)"><path class="b" d="M1481.76,603h0a1,1,0,0,1,1-1h14a1,1,0,0,1,1,1h0a1,1,0,0,1-1,1h-14A1,1,0,0,1,1481.76,603Z"/><path class="b" d="M1481.76,607.667h0a1,1,0,0,1,1-1h14a1,1,0,0,1,1,1h0a1,1,0,0,1-1,1h-14A1,1,0,0,1,1481.76,607.667Z"/><path class="b" d="M1488.76,612.333h0a1,1,0,0,1,1-1h7a1,1,0,0,1,1,1h0a1,1,0,0,1-1,1h-7A1,1,0,0,1,1488.76,612.333Z"/><path class="b" d="M1489.76,617h0a1,1,0,0,1,1-1h6a1,1,0,0,1,1,1h0a1,1,0,0,1-1,1h-6A1,1,0,0,1,1489.76,617Z"/></g></g></svg>