<svg width="76" height="76" viewBox="0 0 76 76" fill="none" xmlns="http://www.w3.org/2000/svg">
<circle cx="38" cy="38" r="38" fill="white"/>
<path d="M22.3395 26.9953C22.6135 26.8852 22.9417 26.768 23.3241 26.6436C25.222 26.0506 27.2013 25.7543 29.191 25.7653C31.1807 25.7543 33.1599 26.0506 35.0578 26.6436C35.4402 26.768 35.7684 26.8852 36.0425 26.9953V48.1367C33.8221 47.4645 31.5123 47.1285 29.191 47.1398C26.3329 47.1398 24.0054 47.6217 22.3395 48.1367V26.9953ZM38.0001 23.5987C37.4326 23.3502 36.8524 23.1317 36.2617 22.9439C33.9748 22.2267 31.5893 21.8675 29.191 21.8791C26.2037 21.8791 23.7979 22.4057 22.1202 22.9439C21.4525 23.1569 20.7981 23.4093 20.1607 23.6998C19.9239 23.8086 19.6908 23.9253 19.4618 24.0495L19.4129 24.0768L19.3953 24.0865L19.3894 24.0904C19.3855 24.0942 18.9039 24.376 19.3835 24.0942C19.0913 24.2662 18.8492 24.5107 18.681 24.8037C18.5128 25.0967 18.4244 25.4281 18.4243 25.7653V51.0261C18.4244 51.3691 18.5159 51.7059 18.6896 52.0024C18.8632 52.2989 19.1128 52.5445 19.4131 52.7143C19.7133 52.884 20.0535 52.9718 20.399 52.9688C20.7445 52.9658 21.083 52.8721 21.3803 52.6972L21.3705 52.703L21.3763 52.7011L21.3783 52.6991L21.4507 52.6603C21.5238 52.6214 21.6426 52.5631 21.807 52.4854C22.1398 52.3338 22.6488 52.1201 23.3241 51.9025C25.2221 51.3101 27.2014 51.0145 29.191 51.0261C31.1806 51.0145 33.1598 51.3101 35.0578 51.9025C35.5747 52.0668 36.0813 52.2614 36.575 52.4854C36.7227 52.5534 36.8683 52.626 37.0115 52.703M37.0115 52.703L37.0076 52.7011L37.0056 52.6991C37.6203 53.0586 38.3838 53.0586 38.9984 52.6991L39.0709 52.6603C39.144 52.6214 39.2627 52.5631 39.4271 52.4854C39.9208 52.2614 40.4274 52.0668 40.9443 51.9025C42.8416 51.3103 44.8203 51.0147 46.8092 51.0261C48.7987 51.0145 50.778 51.3101 52.676 51.9025C53.1929 52.0668 53.6995 52.2614 54.1931 52.4854C54.3382 52.5523 54.4812 52.6236 54.6218 52.6991C54.9192 52.8737 55.2577 52.967 55.6031 52.9696C55.9485 52.9723 56.2884 52.8842 56.5884 52.7143C56.8884 52.5444 57.1378 52.2987 57.3112 52.0022C57.4846 51.7057 57.5759 51.369 57.5758 51.0261V25.7653C57.5758 25.4281 57.4873 25.0967 57.3191 24.8037C57.1509 24.5107 56.9088 24.2662 56.6166 24.0942L56.6127 24.0923L56.6049 24.0865L56.5853 24.0768L56.5383 24.0495C56.3093 23.9253 56.0763 23.8086 55.8395 23.6998C55.2027 23.4094 54.549 23.157 53.8819 22.9439C51.5943 22.2265 49.2081 21.8673 46.8092 21.8791C43.8239 21.8791 41.416 22.4057 39.7384 22.9439C39.1478 23.1317 38.5675 23.3502 38.0001 23.5987M53.6607 26.9953V48.1367C51.4403 47.4645 49.1305 47.1285 46.8092 47.1398C43.9511 47.1398 41.6235 47.6217 39.9576 48.1367V26.9953C40.2317 26.8852 40.5599 26.768 40.9423 26.6436C42.8402 26.0506 44.8195 25.7543 46.8092 25.7653C48.7988 25.7543 50.7781 26.0506 52.676 26.6436C53.0584 26.768 53.3866 26.8852 53.6607 26.9953ZM54.6199 27.4384L54.6297 27.4423H54.6277L54.6199 27.4384ZM54.6218 52.6991L54.6277 52.703L54.6238 52.6991" fill="#9747FF"/>
</svg>
