<svg width="180" height="37" viewBox="0 0 180 37" fill="none" xmlns="http://www.w3.org/2000/svg">
<path d="M9.58852 32.088C9.46852 32.04 9.38452 31.968 9.33652 31.872C9.28852 31.776 9.24052 31.584 9.19252 31.296C9.19252 31.032 9.12052 30.84 8.97652 30.72C8.83252 30.6 8.55652 30.492 8.14852 30.396C7.88452 30.132 7.69252 29.832 7.57252 29.496C7.45252 29.16 7.35652 28.608 7.28452 27.84C7.23652 27.072 7.16452 25.92 7.06852 24.384C7.11652 23.544 7.15252 22.836 7.17652 22.26C7.22452 21.684 7.27252 21.144 7.32052 20.64C7.36852 20.136 7.41652 19.596 7.46452 19.02C7.53652 18.444 7.63252 17.724 7.75252 16.86C7.70452 16.308 7.72852 15.708 7.82452 15.06C7.94452 14.412 7.96852 13.896 7.89652 13.512C8.06452 12.984 8.17252 12.384 8.22052 11.712C8.26852 11.016 8.37652 10.404 8.54452 9.876C8.59252 9.468 8.64052 9.084 8.68852 8.724C8.76052 8.364 8.79652 8.064 8.79652 7.824C8.74852 7.344 8.77252 6.9 8.86852 6.492C8.96452 6.084 9.15652 5.82 9.44452 5.7C9.58852 5.652 9.79252 5.616 10.0565 5.592C10.3205 5.568 10.5125 5.604 10.6325 5.7C10.8245 5.796 10.9565 5.952 11.0285 6.168C11.1005 6.384 11.1245 6.624 11.1005 6.888C11.1485 7.152 11.1485 7.608 11.1005 8.256C11.0765 8.904 11.0165 9.624 10.9205 10.416C10.8245 11.184 10.6925 11.94 10.5245 12.684C10.3325 13.668 10.1765 14.676 10.0565 15.708C9.96052 16.716 9.88852 17.712 9.84052 18.696C9.74452 20.664 9.64852 22.296 9.55252 23.592C9.45652 24.888 9.44452 25.824 9.51652 26.4C9.51652 26.472 9.54052 26.664 9.58852 26.976C9.63652 27.288 9.69652 27.588 9.76852 27.876C9.84052 28.14 9.91252 28.272 9.98452 28.272C10.1765 28.248 10.3565 28.08 10.5245 27.768C10.7165 27.456 10.8845 27.096 11.0285 26.688C11.1965 26.256 11.3525 25.884 11.4965 25.572C11.8085 24.972 12.1205 24.324 12.4325 23.628C12.7685 22.908 13.0565 22.224 13.2965 21.576C13.7285 20.568 14.1605 19.704 14.5925 18.984C15.0245 18.264 15.4325 17.46 15.8165 16.572C15.9605 16.188 16.2125 15.636 16.5725 14.916C16.9565 14.172 17.3165 13.488 17.6525 12.864C18.0605 12.24 18.4445 11.64 18.8045 11.064C19.1885 10.488 19.6325 9.72 20.1365 8.76C20.8325 7.608 21.3725 6.816 21.7565 6.384C22.1405 5.952 22.5245 5.736 22.9085 5.736C23.1725 5.688 23.3285 5.688 23.3765 5.736C23.4485 5.76 23.5685 5.892 23.7365 6.132C23.9285 6.396 24.0245 6.672 24.0245 6.96C24.0485 7.224 23.9285 7.596 23.6645 8.076C23.4245 8.556 22.9925 9.24 22.3685 10.128C21.8885 10.848 21.3485 11.688 20.7485 12.648C20.1725 13.608 19.6325 14.52 19.1285 15.384C18.6485 16.224 18.3005 16.848 18.0845 17.256C17.9645 17.52 17.8565 17.796 17.7605 18.084C17.6645 18.372 17.5205 18.636 17.3285 18.876C17.0885 19.116 16.7645 19.632 16.3565 20.424C15.9485 21.216 15.5525 21.996 15.1685 22.764C14.7365 23.772 14.3885 24.564 14.1245 25.14C13.8845 25.692 13.6805 26.148 13.5125 26.508C13.3685 26.868 13.2245 27.216 13.0805 27.552C12.9365 27.888 12.7565 28.308 12.5405 28.812C12.4205 29.22 12.2525 29.64 12.0365 30.072C11.8445 30.528 11.7365 30.828 11.7125 30.972C11.5445 31.236 11.3165 31.464 11.0285 31.656C10.7645 31.872 10.5005 32.016 10.2365 32.088C9.97252 32.16 9.75652 32.16 9.58852 32.088ZM26.7231 28.74C26.2191 29.172 25.6311 29.424 24.9591 29.496C24.3111 29.568 23.6751 29.472 23.0511 29.208C22.4271 28.92 21.9111 28.488 21.5031 27.912C21.0951 27.384 20.8311 26.784 20.7111 26.112C20.5911 25.416 20.5791 24.516 20.6751 23.412C20.7471 22.476 21.0471 21.54 21.5751 20.604C22.1031 19.644 22.7391 18.792 23.4831 18.048C24.2511 17.304 25.0071 16.788 25.7511 16.5C26.1111 16.26 26.4111 16.152 26.6511 16.176C26.9151 16.176 27.3111 16.2 27.8391 16.248C28.3911 16.32 28.7991 16.428 29.0631 16.572C29.3511 16.716 29.5791 16.908 29.7471 17.148C30.1071 17.508 30.3471 17.868 30.4671 18.228C30.5871 18.564 30.6471 18.9 30.6471 19.236C30.5511 19.764 30.1911 20.412 29.5671 21.18C28.9671 21.924 28.1751 22.536 27.1911 23.016C26.6631 23.184 26.0871 23.256 25.4631 23.232C24.8391 23.208 24.3231 23.052 23.9151 22.764C23.4591 22.572 23.1591 22.608 23.0151 22.872C22.8711 23.112 22.7391 23.712 22.6191 24.672C22.5231 25.584 22.5951 26.256 22.8351 26.688C23.0751 27.096 23.3991 27.336 23.8071 27.408C24.2871 27.504 24.6591 27.576 24.9231 27.624C25.2111 27.648 25.5591 27.54 25.9671 27.3C26.3511 27.06 26.5911 26.928 26.6871 26.904C26.7831 26.856 26.8551 26.808 26.9031 26.76C26.9751 26.688 27.1311 26.532 27.3711 26.292C27.5391 26.124 27.6711 26.004 27.7671 25.932C27.8631 25.836 27.9711 25.788 28.0911 25.788C28.2111 25.788 28.3191 25.848 28.4151 25.968C28.5111 26.064 28.6071 26.136 28.7031 26.184C28.9431 26.184 28.9911 26.328 28.8471 26.616C28.7271 26.904 28.4751 27.252 28.0911 27.66C27.7071 28.044 27.2511 28.404 26.7231 28.74ZM26.6871 21.108C26.9511 20.988 27.2271 20.82 27.5151 20.604C27.8031 20.364 28.0431 20.112 28.2351 19.848C28.4511 19.56 28.5591 19.32 28.5591 19.128C28.5591 18.792 28.4031 18.516 28.0911 18.3C27.7791 18.06 27.3111 18.024 26.6871 18.192C26.4231 18.264 26.1231 18.444 25.7871 18.732C25.4511 18.996 25.1271 19.296 24.8151 19.632C24.5271 19.968 24.2871 20.268 24.0951 20.532C23.9271 20.796 23.8671 20.952 23.9151 21C23.9871 21.12 24.1911 21.216 24.5271 21.288C24.8631 21.336 25.2351 21.348 25.6431 21.324C26.0751 21.3 26.4231 21.228 26.6871 21.108ZM32.7781 28.74C32.5621 28.572 32.4061 28.404 32.3101 28.236C32.2381 28.068 32.2381 27.744 32.3101 27.264C32.3821 26.592 32.4781 26.004 32.5981 25.5C32.7181 24.972 32.8621 24.372 33.0301 23.7C33.0781 23.412 33.2101 22.92 33.4261 22.224C33.6661 21.528 33.9541 20.772 34.2901 19.956C34.6261 19.14 34.9621 18.372 35.2981 17.652C35.6341 16.908 35.9221 16.356 36.1621 15.996C36.3541 15.852 36.5821 15.792 36.8461 15.816C37.1341 15.84 37.3741 15.948 37.5661 16.14C37.8301 16.356 37.8661 16.74 37.6741 17.292C37.5061 17.82 37.1461 18.66 36.5941 19.812C36.3061 20.46 36.0901 20.952 35.9461 21.288C35.8021 21.6 35.7421 21.792 35.7661 21.864C35.7901 21.912 35.8981 21.876 36.0901 21.756C36.2341 21.492 36.4981 21.192 36.8821 20.856C37.2661 20.496 37.6741 20.148 38.1061 19.812C38.5381 19.476 38.9461 19.176 39.3301 18.912C39.7141 18.648 39.9781 18.48 40.1221 18.408C40.3141 18.288 40.5301 18.192 40.7701 18.12C41.0341 18.024 41.2141 17.952 41.3101 17.904C41.8621 17.64 42.4261 17.544 43.0021 17.616C43.5781 17.688 43.9381 17.904 44.0821 18.264C44.1061 18.456 44.1781 18.6 44.2981 18.696C44.4421 18.792 44.5141 18.84 44.5141 18.84C44.6101 18.84 44.6581 18.876 44.6581 18.948C44.6821 19.02 44.6941 19.056 44.6941 19.056C44.6941 19.224 44.5621 19.332 44.2981 19.38C44.0581 19.404 43.7461 19.428 43.3621 19.452C43.0501 19.476 42.7741 19.536 42.5341 19.632C42.2941 19.728 42.0061 19.848 41.6701 19.992C40.7581 20.52 39.8821 21.036 39.0421 21.54C38.2261 22.044 37.4341 22.716 36.6661 23.556C36.4981 23.748 36.3301 23.976 36.1621 24.24C35.9941 24.504 35.8141 24.792 35.6221 25.104C35.5021 25.224 35.3821 25.488 35.2621 25.896C35.1421 26.304 35.0341 26.7 34.9381 27.084C34.8661 27.444 34.8301 27.66 34.8301 27.732C34.8301 27.732 34.7941 27.852 34.7221 28.092C34.6501 28.308 34.5301 28.524 34.3621 28.74C34.0741 29.124 33.8341 29.316 33.6421 29.316C33.4501 29.316 33.1621 29.124 32.7781 28.74ZM46.8668 28.884C46.5068 28.836 46.1948 28.584 45.9308 28.128C45.6908 27.648 45.5468 27.216 45.4988 26.832C45.5228 26.64 45.5468 26.364 45.5708 26.004C45.6188 25.644 45.6668 25.272 45.7148 24.888C45.8108 24.432 45.9428 23.88 46.1108 23.232C46.2788 22.56 46.4468 21.888 46.6148 21.216C46.8068 20.544 46.9748 19.968 47.1188 19.488C47.2628 19.008 47.3588 18.72 47.4068 18.624C47.5268 18.432 47.7188 18.384 47.9828 18.48C48.2468 18.576 48.4628 18.72 48.6308 18.912C48.7748 19.104 48.8588 19.332 48.8828 19.596C48.9308 19.86 48.8948 20.244 48.7748 20.748C48.6788 21.252 48.4868 21.996 48.1988 22.98C47.9348 23.94 47.7308 24.72 47.5868 25.32C47.4668 25.896 47.4188 26.508 47.4428 27.156C47.3468 27.972 47.2748 28.476 47.2268 28.668C47.1788 28.836 47.0588 28.908 46.8668 28.884ZM51.0068 14.52C50.9108 14.592 50.8148 14.628 50.7188 14.628C50.6468 14.604 50.5148 14.532 50.3228 14.412C50.1548 14.388 49.9388 14.28 49.6748 14.088C49.4348 13.872 49.2188 13.656 49.0268 13.44C48.8588 13.2 48.7748 13.056 48.7748 13.008C48.7508 12.768 48.7628 12.468 48.8108 12.108C48.8828 11.724 49.0148 11.388 49.2068 11.1C49.3988 10.788 49.6748 10.62 50.0348 10.596C50.1308 10.596 50.2148 10.608 50.2868 10.632C50.3588 10.656 50.5748 10.74 50.9348 10.884C51.1268 11.244 51.3188 11.652 51.5108 12.108C51.7028 12.54 51.7868 12.972 51.7628 13.404C51.7388 13.812 51.4868 14.184 51.0068 14.52ZM56.9656 30.648C56.9656 30.648 56.9056 30.636 56.7856 30.612C56.6896 30.588 56.5816 30.492 56.4616 30.324C56.0056 30.444 55.6936 30.288 55.5256 29.856C55.3816 29.4 55.3576 28.668 55.4536 27.66C55.5976 26.556 55.6816 25.512 55.7056 24.528C55.7296 23.52 55.7296 22.368 55.7056 21.072C55.6816 20.88 55.6816 20.676 55.7056 20.46C55.7536 20.22 55.7776 20.052 55.7776 19.956C55.8016 19.596 55.8136 19.104 55.8136 18.48C55.8136 17.832 55.8136 17.196 55.8136 16.572C55.8136 15.948 55.8376 15.492 55.8856 15.204C55.8616 14.964 55.8496 14.736 55.8496 14.52C55.8496 14.28 55.8496 14.04 55.8496 13.8C55.8736 13.536 55.8856 13.272 55.8856 13.008C55.8616 12.912 55.8256 12.66 55.7776 12.252C55.7536 11.82 55.7176 11.34 55.6696 10.812C55.6936 10.308 55.6816 9.948 55.6336 9.732C55.6096 9.492 55.5736 9.312 55.5256 9.192C55.4776 9.048 55.4056 8.892 55.3096 8.724C55.0696 8.532 54.9136 8.376 54.8416 8.256C54.7936 8.136 54.8056 8.028 54.8776 7.932C54.9496 7.836 55.0576 7.752 55.2016 7.68C55.3456 7.584 55.5136 7.536 55.7056 7.536C55.8976 7.536 56.1016 7.572 56.3176 7.644C56.5576 7.716 56.8096 7.836 57.0736 8.004C57.1696 8.004 57.2416 8.1 57.2896 8.292C57.3616 8.484 57.5176 8.748 57.7576 9.084C57.8776 9.228 57.9496 9.564 57.9736 10.092C57.9976 10.596 58.0096 11.208 58.0096 11.928C58.0096 12.624 57.9856 13.332 57.9376 14.052C57.9136 14.772 57.8776 15.42 57.8296 15.996C57.8536 16.188 57.8656 16.404 57.8656 16.644C57.8656 16.884 57.8656 17.136 57.8656 17.4C57.8656 17.664 57.8656 17.916 57.8656 18.156C57.8896 18.372 57.9136 18.576 57.9376 18.768C57.9616 19.032 57.9736 19.392 57.9736 19.848C57.9976 20.28 57.9856 20.592 57.9376 20.784C57.8896 20.952 57.8656 21.168 57.8656 21.432C57.8656 21.672 57.8656 22.044 57.8656 22.548C57.8896 23.028 57.9136 23.736 57.9376 24.672C57.9136 25.152 57.8896 25.596 57.8656 26.004C57.8656 26.412 57.8776 26.724 57.9016 26.94C57.9496 27.156 58.0336 27.228 58.1536 27.156C58.3936 26.532 58.6096 25.992 58.8016 25.536C58.9936 25.056 59.2336 24.528 59.5216 23.952C59.5696 23.88 59.6656 23.688 59.8096 23.376C59.9776 23.064 60.1216 22.752 60.2416 22.44C60.3856 22.104 60.4456 21.912 60.4216 21.864C60.4216 21.864 60.4456 21.816 60.4936 21.72C60.5416 21.6 60.6136 21.468 60.7096 21.324C60.8056 21.18 60.9256 21.048 61.0696 20.928C61.2616 20.664 61.3696 20.46 61.3936 20.316C61.4416 20.172 61.6216 19.908 61.9336 19.524C62.1496 19.164 62.4376 18.636 62.7976 17.94C63.1816 17.244 63.5776 16.5 63.9856 15.708C64.4176 14.916 64.8256 14.184 65.2096 13.512C65.6176 12.84 65.9416 12.348 66.1816 12.036C66.2296 11.916 66.2776 11.796 66.3256 11.676C66.3976 11.556 66.4576 11.448 66.5056 11.352C66.5776 11.232 66.6496 11.136 66.7216 11.064C66.7936 10.992 66.8776 10.932 66.9736 10.884C67.0216 10.692 67.1416 10.428 67.3336 10.092C67.5496 9.756 67.7176 9.42 67.8376 9.084C68.4376 8.34 68.8696 7.752 69.1336 7.32C69.4216 6.864 69.6496 6.528 69.8176 6.312C70.0336 6.096 70.2256 5.928 70.3936 5.808C70.5856 5.664 70.7296 5.592 70.8256 5.592C71.0176 5.64 71.2456 5.784 71.5096 6.024C71.7736 6.24 72.0016 6.48 72.1936 6.744C72.3856 6.984 72.4576 7.164 72.4096 7.284C72.3376 7.356 72.2176 7.524 72.0496 7.788C71.8816 8.028 71.6536 8.328 71.3656 8.688C71.1016 9.024 70.7896 9.372 70.4296 9.732C70.2136 9.972 69.9976 10.32 69.7816 10.776C69.5656 11.208 69.3256 11.592 69.0616 11.928C68.8936 12.264 68.6536 12.66 68.3416 13.116C68.0296 13.548 67.7776 13.908 67.5856 14.196C67.4656 14.484 67.3216 14.736 67.1536 14.952C66.9856 15.144 66.8056 15.36 66.6136 15.6C66.6616 15.768 66.6376 15.888 66.5416 15.96C66.4456 16.032 66.3736 16.116 66.3256 16.212C66.0376 16.86 65.8216 17.316 65.6776 17.58C65.5336 17.844 65.3296 18.144 65.0656 18.48C64.9696 18.648 64.8376 18.852 64.6696 19.092C64.5016 19.308 64.3696 19.56 64.2736 19.848C64.1056 20.016 63.9856 20.16 63.9136 20.28C63.8416 20.376 63.8176 20.484 63.8416 20.604C63.8416 20.604 63.7696 20.736 63.6256 21C63.4816 21.264 63.3496 21.6 63.2296 22.008C63.0616 22.272 62.8816 22.548 62.6896 22.836C62.4976 23.124 62.3536 23.4 62.2576 23.664C62.1856 23.784 62.0896 23.904 61.9696 24.024C61.8496 24.12 61.7896 24.216 61.7896 24.312C61.6936 24.408 61.5736 24.6 61.4296 24.888C61.2856 25.152 61.1296 25.476 60.9616 25.86C60.7456 26.148 60.5056 26.58 60.2416 27.156C59.9776 27.708 59.7496 28.128 59.5576 28.416C59.4376 28.728 59.2696 29.076 59.0536 29.46C58.8376 29.844 58.6696 30.132 58.5496 30.324C58.3816 30.732 58.1536 30.984 57.8656 31.08C57.6016 31.176 57.3016 31.032 56.9656 30.648ZM71.9762 29.784C71.6642 29.808 71.4122 29.784 71.2202 29.712C71.0282 29.616 70.7882 29.484 70.5002 29.316C69.9722 28.908 69.5762 28.5 69.3122 28.092C69.0722 27.66 68.9642 27.24 68.9882 26.832C69.0362 26.616 69.0362 26.424 68.9882 26.256C68.9642 26.088 68.9522 26.004 68.9522 26.004C68.8082 25.884 68.7602 25.812 68.8082 25.788C68.8562 25.74 68.8922 25.668 68.9162 25.572C69.1082 25.524 69.1322 25.392 68.9882 25.176C68.9162 24.984 68.9522 24.552 69.0962 23.88C69.2642 23.184 69.4802 22.536 69.7442 21.936C69.8642 21.672 70.0322 21.324 70.2482 20.892C70.4882 20.46 70.7522 20.028 71.0402 19.596C71.3282 19.14 71.5922 18.78 71.8322 18.516C72.3602 17.916 72.8282 17.472 73.2362 17.184C73.6682 16.872 74.1482 16.62 74.6762 16.428C75.1562 16.236 75.5042 16.128 75.7202 16.104C75.9362 16.08 76.2362 16.224 76.6202 16.536C77.1962 16.704 77.6282 16.944 77.9162 17.256C78.2282 17.544 78.4682 18 78.6362 18.624C78.8282 19.32 78.8882 20.148 78.8162 21.108C78.7682 22.044 78.3602 23.256 77.5922 24.744C77.1362 25.68 76.6802 26.388 76.2242 26.868C75.7922 27.348 75.2642 27.852 74.6402 28.38C74.1842 28.764 73.7642 29.064 73.3802 29.28C72.9962 29.496 72.5282 29.664 71.9762 29.784ZM74.8562 25.5C75.3362 24.78 75.7082 24.12 75.9722 23.52C76.2602 22.896 76.4882 22.116 76.6562 21.18C76.7042 20.916 76.7162 20.592 76.6922 20.208C76.6682 19.8 76.6082 19.428 76.5122 19.092C76.4402 18.756 76.3322 18.576 76.1882 18.552C75.8762 18.432 75.5282 18.432 75.1442 18.552C74.7602 18.648 74.3402 18.936 73.8842 19.416C73.4762 19.896 73.1042 20.436 72.7682 21.036C72.4562 21.636 72.1682 22.296 71.9042 23.016C71.6402 23.736 71.3882 24.504 71.1482 25.32C70.9082 26.232 70.9202 26.928 71.1842 27.408C71.4722 27.888 71.9402 28.008 72.5882 27.768C73.2362 27.504 73.9922 26.748 74.8562 25.5ZM80.4916 29.748C80.1076 29.772 79.8316 29.592 79.6636 29.208C79.5196 28.824 79.6996 28.344 80.2036 27.768C80.3236 27.648 80.5276 27.432 80.8156 27.12C81.1276 26.784 81.4636 26.4 81.8236 25.968C82.2076 25.536 82.5796 25.104 82.9396 24.672L84.7396 22.548L86.3596 20.964L88.4476 18.66C89.1676 17.892 89.7316 17.352 90.1396 17.04C90.5476 16.704 90.8836 16.536 91.1476 16.536C91.4116 16.512 91.6636 16.62 91.9036 16.86C92.0236 16.932 92.0836 17.04 92.0836 17.184C92.1076 17.328 92.1196 17.448 92.1196 17.544C92.1676 17.712 91.9636 18.084 91.5076 18.66C91.0756 19.236 90.3076 20.076 89.2036 21.18C88.5796 21.612 88.0636 22.044 87.6556 22.476C87.2716 22.908 87.0916 23.172 87.1156 23.268C86.7316 23.7 86.4076 24.048 86.1436 24.312C85.9036 24.576 85.6516 24.84 85.3876 25.104C85.1476 25.344 84.8596 25.644 84.5236 26.004C84.2116 26.34 83.7916 26.82 83.2636 27.444C82.6636 28.164 82.1116 28.716 81.6076 29.1C81.1276 29.484 80.7556 29.7 80.4916 29.748ZM89.5636 30.9C89.3956 30.9 89.1676 30.792 88.8796 30.576C88.5916 30.384 88.3036 30.132 88.0156 29.82C87.7516 29.508 87.5236 29.208 87.3316 28.92L86.7916 27.876V27.912C86.6236 27.576 86.4436 27.228 86.2516 26.868C86.0836 26.484 85.9756 26.184 85.9276 25.968C85.9276 25.92 85.9036 25.848 85.8556 25.752C85.8316 25.656 85.7476 25.404 85.6036 24.996C85.4596 24.588 85.1836 23.904 84.7756 22.944L84.2356 21C84.0916 20.496 83.9356 20.016 83.7676 19.56C83.5996 19.08 83.4556 18.756 83.3356 18.588C83.1676 18.276 83.0836 18.084 83.0836 18.012C83.0836 17.916 83.1436 17.748 83.2636 17.508L83.3356 17.472C83.5276 17.232 83.7196 17.064 83.9116 16.968C84.1036 16.872 84.3316 16.86 84.5956 16.932C84.7876 17.052 84.9796 17.304 85.1716 17.688C85.3876 18.048 85.5796 18.444 85.7476 18.876C85.9396 19.284 86.0956 19.668 86.2156 20.028V19.992L86.6476 21.288L87.1876 23.268C87.1396 23.388 87.1636 23.628 87.2596 23.988C87.3796 24.348 87.5236 24.78 87.6916 25.284L87.9076 26.148C88.0036 26.364 88.1236 26.604 88.2676 26.868C88.4116 27.108 88.5196 27.324 88.5916 27.516V27.48C88.7116 27.792 88.8316 28.08 88.9516 28.344C89.0716 28.608 89.1676 28.824 89.2396 28.992C89.3356 29.16 89.3956 29.244 89.4196 29.244C89.5636 29.34 89.6356 29.4 89.6356 29.424C89.6596 29.448 89.6836 29.484 89.7076 29.532C89.7316 29.604 89.7676 29.676 89.8156 29.748C89.8876 29.82 89.9356 29.892 89.9596 29.964C90.0316 30.132 90.0676 30.276 90.0676 30.396C90.0916 30.54 90.0556 30.648 89.9596 30.72C89.8876 30.816 89.7556 30.876 89.5636 30.9Z" fill="black"/>
<path d="M123.76 0.399999C124.133 0.399999 124.333 0.653332 124.36 1.16C124.387 1.64 124.453 2.02667 124.56 2.32C124.667 2.58667 124.907 3.04 125.28 3.68C125.653 4.29333 125.84 4.72 125.84 4.96C125.84 5.2 125.733 5.49333 125.52 5.84C125.307 6.18666 125.107 6.36 124.92 6.36C124.733 6.36 124.52 6.32 124.28 6.24C124.067 6.13333 123.613 5.96 122.92 5.72C122.253 5.45333 121.853 5.24 121.72 5.08C121.587 4.89333 121.52 4.44 121.52 3.72C121.52 2.97333 121.613 2.37333 121.8 1.92C122.013 1.46667 122.333 1.10667 122.76 0.839998C123.213 0.546665 123.547 0.399999 123.76 0.399999ZM111.96 3.6C112.227 3.6 112.44 3.82666 112.6 4.28C112.787 4.73333 113.093 5.32 113.52 6.04C113.973 6.73333 114.387 7.30667 114.76 7.76C115.133 8.18667 115.32 8.64 115.32 9.12C115.32 9.86667 114.933 10.24 114.16 10.24C113.413 10.24 112.88 10.1467 112.56 9.96C112.267 9.8 111.933 9.66667 111.56 9.56C111.187 9.45333 110.92 9.32 110.76 9.16C110.6 9 110.48 8.6 110.4 7.96C110.347 7.32 110.32 6.68 110.32 6.04C110.32 5.4 110.533 4.84 110.96 4.36C111.413 3.85333 111.747 3.6 111.96 3.6ZM127.68 13.04C127.68 13.2267 127.933 13.3333 128.44 13.36C129.533 13.4667 130.373 13.6267 130.96 13.84C131.547 14.0267 132.133 14.3333 132.72 14.76C133.333 15.1867 133.973 15.7867 134.64 16.56C135.333 17.3067 135.76 17.8267 135.92 18.12C136.107 18.4133 136.2 18.6533 136.2 18.84C136.2 19.0267 136.133 19.1867 136 19.32C135.867 19.4267 135.333 19.5067 134.4 19.56C133.493 19.6133 132.893 19.64 132.6 19.64L131.32 19.6C131.027 19.6 130.813 19.68 130.68 19.84C130.547 20 130.427 20.4533 130.32 21.2C130.213 21.92 130.093 23.0133 129.96 24.48C129.853 25.9467 129.747 26.8533 129.64 27.2C129.533 27.52 129.373 27.68 129.16 27.68C128.973 27.68 128.413 27.5067 127.48 27.16C126.573 26.8133 125.88 26.4933 125.4 26.2C124.92 25.88 124.613 25.72 124.48 25.72C124.373 25.72 124.293 25.8 124.24 25.96C124.213 26.12 124.187 26.8133 124.16 28.04L124.04 31.28C124.04 32.24 124.12 33.1067 124.28 33.88C124.467 34.6533 124.56 35.1733 124.56 35.44C124.56 36.1867 124.227 36.56 123.56 36.56C123.293 36.56 122.92 36.4933 122.44 36.36C121.987 36.2267 121.76 36.0533 121.76 35.84C121.76 35.6267 121.813 35.3867 121.92 35.12C122.267 34.2933 122.44 33.1467 122.44 31.68C122.44 30.24 122.413 28.7467 122.36 27.2C122.307 25.6267 122.28 24.1733 122.28 22.84L122.32 21.12C122.32 20.6133 122.213 20.36 122 20.36C121.787 20.36 121.48 20.52 121.08 20.84C120.707 21.16 120.453 21.5467 120.32 22C120.187 22.4267 120.093 22.92 120.04 23.48C120.013 24.04 120 24.8533 120 25.92C120 26.48 119.72 26.76 119.16 26.76C118.92 26.76 118.707 26.6533 118.52 26.44C118.333 26.2267 118.187 25.6667 118.08 24.76C117.973 23.8533 117.92 23.1067 117.92 22.52C117.92 20.92 118.013 19.9733 118.2 19.68C118.387 19.3867 119.573 19 121.76 18.52C122.08 18.4667 122.24 18.1733 122.24 17.64C122.24 17.4267 122.2 17.1467 122.12 16.8C122.04 16.4267 121.88 16.24 121.64 16.24C121.4 16.24 120.92 16.4 120.2 16.72C119.507 17.0133 119.053 17.16 118.84 17.16C118.627 17.16 118.387 17.08 118.12 16.92C117.88 16.7333 117.76 16.5467 117.76 16.36C117.76 16.1733 118.2 15.92 119.08 15.6C119.96 15.2533 120.747 14.9867 121.44 14.8C122.72 14.5067 123.627 13.9467 124.16 13.12C124.693 12.2933 124.96 11.6 124.96 11.04C124.96 10.4 124.773 10.08 124.4 10.08C123.707 10.08 123.08 10.36 122.52 10.92C121.96 11.48 121.52 12.2 121.2 13.08C120.88 13.9333 120.6 14.48 120.36 14.72C120.147 14.96 119.853 15.08 119.48 15.08C119.133 15.08 118.88 14.96 118.72 14.72C118.56 14.48 118.48 14.1867 118.48 13.84C118.48 13.68 118.56 13.3333 118.72 12.8C118.907 12.2667 119 11.8933 119 11.68C119 11.44 118.96 11.3067 118.88 11.28C118.8 11.2267 118.573 11.2 118.2 11.2C117.827 11.2 117.56 11.1467 117.4 11.04C117.267 10.9333 117.2 10.6933 117.2 10.32C117.2 9.01333 117.373 8.36 117.72 8.36C117.827 8.36 118.013 8.42667 118.28 8.56C118.547 8.66667 118.88 8.72 119.28 8.72C119.68 8.72 120.413 8.53333 121.48 8.16C122.547 7.76 123.787 7.37333 125.2 7C126.64 6.6 127.6 6.38667 128.08 6.36C128.56 6.30667 128.947 6.2 129.24 6.04C129.533 5.88 129.707 5.8 129.76 5.8C129.947 5.8 130.24 6.05333 130.64 6.56C131.04 7.06666 131.24 7.54666 131.24 8C131.24 8.42667 131.067 8.66667 130.72 8.72C129.653 8.88 128.933 9.01333 128.56 9.12C128.213 9.22667 128.04 9.38667 128.04 9.6C128.04 9.78667 128.2 10 128.52 10.24C128.867 10.48 129.04 10.72 129.04 10.96C129.04 11.1733 128.813 11.4667 128.36 11.84C127.907 12.1867 127.68 12.5867 127.68 13.04ZM131.64 17.08C131.64 16.68 131.32 16.24 130.68 15.76C130.067 15.2533 129.413 15 128.72 15C128.053 15 127.36 15.0533 126.64 15.16C125.947 15.2667 125.52 15.3467 125.36 15.4C125.2 15.4533 125.067 15.6533 124.96 16C124.853 16.3467 124.8 16.6 124.8 16.76C124.8 17.4 125.347 17.6667 126.44 17.56C126.787 17.5333 127.093 17.52 127.36 17.52C128.213 17.52 129.053 17.68 129.88 18C130.04 18.0533 130.253 18.08 130.52 18.08C130.787 18.08 131.04 17.9733 131.28 17.76C131.52 17.5467 131.64 17.32 131.64 17.08ZM125.84 24.44C126.747 24.44 127.2 23.8 127.2 22.52C127.2 22.28 127.133 21.7467 127 20.92C126.893 20.0933 126.733 19.6133 126.52 19.48C126.307 19.3467 125.987 19.28 125.56 19.28C125.133 19.28 124.827 19.3467 124.64 19.48C124.48 19.6133 124.373 19.9067 124.32 20.36C124.293 20.8133 124.28 21.44 124.28 22.24C124.28 23.04 124.347 23.6133 124.48 23.96C124.64 24.28 125.093 24.44 125.84 24.44ZM117.6 20.08C117.6 20.4 117.547 20.6133 117.44 20.72C117.36 20.8267 117.2 20.88 116.96 20.88L115.84 20.8C115.573 20.8 115.373 21.12 115.24 21.76C114.76 23.9467 114.04 25.56 113.08 26.6C112.44 27.2933 111.973 27.8667 111.68 28.32C111.387 28.7467 111.173 28.96 111.04 28.96C110.8 28.96 110.44 28.4133 109.96 27.32C109.48 26.2267 109.24 24.5333 109.24 22.24L109.4 18.52C109.4 18.1467 109.373 17.9067 109.32 17.8C109.267 17.6667 109.16 17.6 109 17.6C108.413 17.6 107.747 17.7333 107 18C106.253 18.24 105.76 18.48 105.52 18.72C105.307 18.9333 105.16 19.04 105.08 19.04C104.893 19.04 104.613 18.5333 104.24 17.52C103.867 16.48 103.68 15.8667 103.68 15.68C103.68 15.4667 103.787 15.32 104 15.24C104.24 15.16 104.667 15.1067 105.28 15.08C105.893 15.0533 106.747 14.8933 107.84 14.6C108.933 14.28 109.693 14.0133 110.12 13.8C110.547 13.5867 110.933 13.32 111.28 13C111.653 12.6533 111.92 12.48 112.08 12.48C112.24 12.48 112.413 12.5867 112.6 12.8C112.813 12.9867 113.12 13.2267 113.52 13.52C113.92 13.7867 114.12 14.12 114.12 14.52C114.12 14.8933 114.013 15.16 113.8 15.32C112.013 16.6533 111.12 18.5467 111.12 21C111.12 21.6933 111.213 22.24 111.4 22.64C111.587 23.04 111.84 23.24 112.16 23.24C112.64 23.24 113.147 22.8133 113.68 21.96C114.24 21.08 114.667 19.0667 114.96 15.92C115.013 15.4667 115.107 15.24 115.24 15.24C115.4 15.24 115.493 15.3333 115.52 15.52C115.547 15.68 115.6 16.28 115.68 17.32C115.707 17.6667 115.8 17.84 115.96 17.84C116.147 17.84 116.4 17.72 116.72 17.48C116.853 17.4 116.973 17.36 117.08 17.36C117.187 17.36 117.293 17.68 117.4 18.32C117.533 18.96 117.6 19.5467 117.6 20.08ZM175.76 14.04C175.76 14.36 175.72 14.5867 175.64 14.72C175.587 14.8267 175.453 14.88 175.24 14.88C175.053 14.88 174.8 14.8533 174.48 14.8C174.187 14.72 173.853 14.68 173.48 14.68C173.133 14.68 172.56 14.7067 171.76 14.76C170.96 14.8133 170.44 14.9067 170.2 15.04C169.96 15.1467 169.733 15.68 169.52 16.64C169.307 17.5733 169.2 18.3733 169.2 19.04C169.2 19.68 169.253 20.3867 169.36 21.16C169.467 21.9333 169.52 22.52 169.52 22.92C169.52 23.2933 169.48 23.8 169.4 24.44C169.347 25.0533 169.32 25.72 169.32 26.44C169.32 27.16 169.347 27.7067 169.4 28.08C169.453 28.4533 169.48 28.8133 169.48 29.16C169.48 29.5333 169.453 29.92 169.4 30.32C169.347 30.7467 169.32 31.2933 169.32 31.96C169.32 32.6267 169.347 33.1733 169.4 33.6L169.52 34.68C169.52 34.9733 169.4 35.2 169.16 35.36C168.92 35.5467 168.6 35.64 168.2 35.64C167.827 35.64 167.453 35.5467 167.08 35.36C166.707 35.1733 166.52 34.9867 166.52 34.8C166.52 34.64 166.56 34.4667 166.64 34.28C166.72 34.0933 166.76 33.7733 166.76 33.32C166.787 32.8933 166.8 31.8667 166.8 30.24C166.8 28.6133 166.76 27.0133 166.68 25.44L166.36 20.68C166.28 19.1067 166.133 17.9467 165.92 17.2C165.707 16.4267 165.547 16 165.44 15.92C165.333 15.8133 165.213 15.76 165.08 15.76C164.707 15.76 164.067 15.8933 163.16 16.16C162.28 16.4267 161.693 16.6667 161.4 16.88C161.133 17.0933 160.867 17.48 160.6 18.04L159.76 19.76C159.493 20.3467 159.36 20.88 159.36 21.36C159.36 21.84 159.453 22.2933 159.64 22.72C159.853 23.12 159.96 23.4667 159.96 23.76C159.96 24.0533 159.747 24.4133 159.32 24.84C158.893 25.2667 158.44 25.8133 157.96 26.48C157.48 27.1467 156.507 27.8 155.04 28.44C153.573 29.08 152.733 29.4 152.52 29.4C152.333 29.4 152.24 29.3333 152.24 29.2C152.24 29.0667 152.373 28.8667 152.64 28.6C153.787 27.3467 154.547 26.4533 154.92 25.92C155.32 25.3867 155.787 24.6 156.32 23.56C156.853 22.52 157.32 21.28 157.72 19.84C158.147 18.4 158.453 16.9867 158.64 15.6C158.853 14.1867 158.96 12.4667 158.96 10.44C158.96 8.41333 158.8 7 158.48 6.2C158.427 6.01333 158.4 5.86667 158.4 5.76C158.4 5.46667 158.64 5.36 159.12 5.44C159.627 5.49333 159.973 5.52 160.16 5.52C160.64 5.52 161.853 5.2 163.8 4.56C165.747 3.89333 167.64 3.12 169.48 2.24C169.613 2.18667 169.72 2.16 169.8 2.16C170.013 2.16 170.187 2.58667 170.32 3.44C170.453 4.29333 170.52 4.82666 170.52 5.04C170.52 5.25333 170.427 5.42667 170.24 5.56C170.053 5.66667 169.293 6.02667 167.96 6.64C166.653 7.22667 165.147 7.81333 163.44 8.4C162.853 8.61333 162.467 8.93333 162.28 9.36C162.12 9.78667 162.04 10.5867 162.04 11.76C162.04 12.1333 162.08 12.3867 162.16 12.52C162.267 12.6533 162.44 12.6933 162.68 12.64C164.04 12.2933 165.093 12.08 165.84 12C166.613 11.92 167.76 11.72 169.28 11.4C170.8 11.08 171.76 10.8667 172.16 10.76C172.56 10.6267 172.853 10.56 173.04 10.56C173.227 10.56 173.4 10.6133 173.56 10.72C173.72 10.8 174.093 11.24 174.68 12.04C175.267 12.8133 175.587 13.2933 175.64 13.48C175.72 13.6667 175.76 13.8533 175.76 14.04ZM157.4 10.72C157.4 10.8267 157.24 11.04 156.92 11.36C156.6 11.68 156.333 12.08 156.12 12.56C155.907 13.0133 155.693 13.3333 155.48 13.52C155.267 13.7067 155.16 14.1333 155.16 14.8L155.2 16.32C155.2 16.5333 155.173 16.72 155.12 16.88C155.093 17.04 154.987 17.1067 154.8 17.08H154.56C154.373 17.08 153.733 17.2267 152.64 17.52C151.547 17.8133 150.787 18.04 150.36 18.2C149.96 18.36 149.613 18.5733 149.32 18.84C149.027 19.1067 148.76 19.24 148.52 19.24C148.307 19.24 148.107 19.16 147.92 19C147.76 18.8133 147.333 18.0267 146.64 16.64C145.973 15.2533 145.44 14.04 145.04 13C144.64 11.96 144.44 11.2533 144.44 10.88C144.44 10.5067 144.693 10.2533 145.2 10.12C148 9.37333 149.667 8.88 150.2 8.64C150.76 8.4 151.427 8.28 152.2 8.28C152.973 8.28 154.027 8.61333 155.36 9.28C156.72 9.92 157.4 10.4 157.4 10.72ZM150 15C150.56 15 151.067 14.8667 151.52 14.6C152 14.3067 152.24 13.7067 152.24 12.8C152.24 11.8933 152.133 11.3733 151.92 11.24C151.733 11.1067 151.44 11.04 151.04 11.04C150.667 11.04 150.213 11.2133 149.68 11.56C149.147 11.9067 148.88 12.4267 148.88 13.12C148.88 14.3733 149.253 15 150 15Z" fill="black"/>
</svg>
